<?xml version="1.0" encoding="utf-8"?>
<!-- Generator: Adobe Illustrator 25.0.0, SVG Export Plug-In . SVG Version: 6.00 Build 0)  -->
<svg version="1.1" id="Warstwa_1" xmlns="http://www.w3.org/2000/svg" xmlns:xlink="http://www.w3.org/1999/xlink" x="0px" y="0px"
	 viewBox="0 0 50 50" style="enable-background:new 0 0 50 50;" xml:space="preserve">
<style type="text/css">
	.st0{fill:#FFFFFF;}
</style>
<g>
	<path class="st0" d="M45.1,25.5L40.5,2.9C40.2,1.2,38.7,0,37,0H13c-1.7,0-3.2,1.2-3.6,2.9L4.9,25.5C2.4,38.2,12.1,50,25,50h0
		C37.9,50,47.6,38.2,45.1,25.5z M27.1,41C16.5,42.3,7.7,33.5,9,22.9c0.9-7.2,6.7-13,13.9-13.9C33.5,7.7,42.3,16.5,41,27.1
		C40.1,34.3,34.3,40.1,27.1,41z"/>
	<circle class="st0" cx="25" cy="25" r="8.7"/>
</g>
</svg>
